<?xml version="1.0" encoding="utf-8"?>
<!-- Generator: Adobe Illustrator 25.0.0, SVG Export Plug-In . SVG Version: 6.00 Build 0)  -->
<svg version="1.1" id="Layer_1" xmlns="http://www.w3.org/2000/svg" xmlns:xlink="http://www.w3.org/1999/xlink" x="0px" y="0px"
	 viewBox="0 0 200 200" style="enable-background:new 0 0 200 200;" xml:space="preserve">
<style type="text/css">
	.st0{fill:#7A5CA7;}
	.st1{fill:#F9F9F9;}
</style>
<circle class="st0" cx="99.5" cy="100.5" r="99.5"/>
<path class="st1" d="M43,163.8c-4.7,0-9.3,0-14.3,0C30.3,133.5,44.8,112,72,98.6C57.8,88,50,74.1,50.3,56.3
	c0.2-13.5,5.3-25.2,15-34.5c20-19.2,50.8-18.8,70,0.5c20.2,20.3,20.4,57.2-7.2,76.3c27,13.3,41.6,34.8,43.1,65.1
	c-4.9,0-9.5,0-14.3,0c-0.6-19.3-8.5-35.1-24.4-46.4c-10.3-7.3-21.9-10.6-34.5-10.2C68.8,108.1,43.7,131.6,43,163.8z M100,92.8
	c19.8,0,35.6-15.8,35.5-35.5c0-19.6-15.8-35.5-35.4-35.5c-19.7,0-35.6,15.7-35.7,35.4C64.4,76.9,80.3,92.8,100,92.8z"/>
</svg>
