<?xml version="1.0" encoding="utf-8"?>
<!-- Generator: Adobe Illustrator 25.0.0, SVG Export Plug-In . SVG Version: 6.00 Build 0)  -->
<svg version="1.1" id="Layer_1" xmlns="http://www.w3.org/2000/svg" xmlns:xlink="http://www.w3.org/1999/xlink" x="0px" y="0px"
	 viewBox="0 0 365 90" style="enable-background:new 0 0 365 90;" xml:space="preserve">
<style type="text/css">
	.st0{fill:#504B8E;}
	.st1{fill:#D8E3FF;}
	.st2{fill:#97A2BA;}
	.st3{font-family:'NunitoSans-Light';}
	.st4{font-size:26.1615px;}
</style>
<path class="st0" d="M-399.2,105.7c3,0,5.7-0.5,8.3-1.5c2.6-1,4.7-2.5,6.2-4.5c1.6-2,2.4-4.5,2.4-7.5c0-2.1-0.4-3.9-1.2-5.3
	c-0.8-1.4-1.8-2.6-3-3.4c-1.2-0.9-2.5-1.5-3.8-2c-1.3-0.5-2.5-0.9-3.5-1.1l-7.7-2.2c-1-0.3-1.9-0.6-2.9-1c-1-0.4-1.8-0.9-2.4-1.6
	c-0.6-0.7-1-1.6-1-2.6c0-1.1,0.4-2.1,1.1-2.9c0.8-0.8,1.8-1.5,3-1.9c1.2-0.5,2.6-0.7,4-0.6c2.2,0.1,4.2,0.7,6,2
	c1.8,1.2,2.9,3,3.4,5.3l7.8-1.3c-1-4-2.9-7.1-5.9-9.3c-3-2.2-6.7-3.3-11.1-3.4c-2.9,0-5.6,0.5-8,1.4c-2.4,0.9-4.3,2.3-5.7,4.2
	c-1.4,1.9-2.1,4.2-2.1,7c0,1.9,0.3,3.5,0.9,4.8c0.6,1.3,1.4,2.3,2.4,3.2c1,0.8,2,1.5,3.1,2c1.1,0.5,2.2,0.9,3.1,1.1l11.2,3.3
	c3.2,1,4.8,2.6,4.8,5c0,1.3-0.4,2.4-1.3,3.4c-0.8,0.9-1.9,1.6-3.3,2.1c-1.4,0.5-2.8,0.7-4.3,0.7c-2.6,0-4.9-0.7-6.9-2.1
	c-2-1.4-3.3-3.4-3.9-5.9l-7.5,1.1c0.5,2.8,1.5,5.3,3.1,7.3c1.6,2,3.7,3.6,6.2,4.7C-405.2,105.2-402.3,105.7-399.2,105.7z
	 M-375.8,104.8h7.4V89.2l12.4,15.6h9.6l-13.6-16.2l12.6-16.2h-9L-368.4,88V61.6h-7.3L-375.8,104.8z M-339.2,119.2h6.8l18.1-46.8
	h-7.2l-8.8,23.2l-9.1-23.2h-7.5l13.1,32.2L-339.2,119.2z M-298.1,105.7c1.9,0,3.6-0.3,5.2-0.9c1.5-0.6,2.9-1.4,4-2.4v2.4h6.4V61.6
	h-7.3V74c-1.1-0.8-2.3-1.4-3.6-1.8c-1.3-0.4-2.8-0.7-4.4-0.7c-3.1,0-5.7,0.7-8,2.2c-2.2,1.5-4,3.5-5.2,6.1s-1.9,5.5-1.9,8.8
	c0,3.2,0.6,6.2,1.8,8.7c1.2,2.6,2.9,4.6,5.2,6.1S-301.1,105.7-298.1,105.7z M-297,99.2c-1.9,0-3.4-0.5-4.7-1.4
	c-1.2-1-2.1-2.2-2.7-3.8c-0.6-1.6-0.9-3.4-0.9-5.4c0-2,0.3-3.7,0.9-5.3c0.6-1.6,1.5-2.9,2.8-3.8c1.3-1,2.9-1.4,4.8-1.4
	c2.8,0,4.8,1,6,2.9c1.3,2,1.9,4.5,1.9,7.7c0,3.1-0.6,5.7-1.9,7.7C-292,98.3-294.1,99.2-297,99.2z M-265,105.7c2.6,0,4.8-0.4,6.6-1.3
	c1.8-0.9,3.4-2.2,4.8-4v4.3h6.3V84.9c0-1.4-0.1-2.7-0.2-3.9c-0.1-1.2-0.5-2.4-1.1-3.5c-1.1-2.1-2.7-3.7-4.9-4.6
	c-2.2-0.9-4.7-1.4-7.6-1.4c-3.8,0-6.8,0.8-9.1,2.5c-2.3,1.7-3.8,3.9-4.6,6.6l6.6,2.1c0.5-1.7,1.5-2.8,2.8-3.5c1.4-0.7,2.8-1,4.2-1
	c2.2,0,3.8,0.4,4.9,1.3c1,0.9,1.6,2.2,1.8,4.1c-2.8,0.4-5.5,0.8-7.9,1.2c-2.4,0.4-4.5,0.8-6.2,1.4c-2.6,0.9-4.4,2.1-5.6,3.8
	c-1.2,1.6-1.8,3.6-1.8,5.9c0,1.8,0.4,3.4,1.2,4.9c0.8,1.5,2.1,2.7,3.7,3.6C-269.3,105.3-267.3,105.7-265,105.7z M-263.5,100
	c-1.7,0-3-0.4-3.9-1.2c-0.9-0.8-1.3-1.8-1.3-2.9c0-1.1,0.3-1.9,1-2.6c0.7-0.7,1.7-1.2,2.9-1.7c1.1-0.4,2.5-0.7,4.1-1
	c1.6-0.3,3.7-0.6,6.3-1c0,0.8-0.1,1.6-0.1,2.5c-0.1,0.9-0.3,1.8-0.6,2.5c-0.2,0.7-0.7,1.5-1.4,2.4c-0.7,0.8-1.6,1.6-2.8,2.1
	C-260.5,99.7-261.9,100-263.5,100z M-227,105.7c4.2,0,7.4-0.9,9.8-2.8c2.4-1.9,3.6-4.4,3.6-7.7c0-2.5-0.8-4.5-2.4-5.9
	c-1.6-1.4-4.3-2.7-8.2-3.7c-2.5-0.6-4.4-1.2-5.7-1.6c-1.3-0.4-2.1-0.9-2.5-1.3c-0.4-0.4-0.6-1-0.6-1.6c0-1.1,0.5-1.9,1.6-2.5
	c1-0.6,2.4-0.9,4.1-0.8c1.8,0.1,3.2,0.6,4.2,1.3c1.1,0.8,1.7,1.9,1.9,3.3l7.4-1.3c-0.4-2.9-1.8-5.2-4.3-7c-2.5-1.7-5.6-2.6-9.4-2.6
	c-3.9,0-7,0.9-9.3,2.7c-2.3,1.8-3.5,4.2-3.5,7.3c0,2.4,0.8,4.3,2.4,5.7c1.6,1.4,4.5,2.6,8.6,3.7c2.4,0.6,4.2,1.2,5.4,1.6
	c1.2,0.4,1.9,0.8,2.3,1.3c0.4,0.4,0.5,1,0.5,1.8c0,1.2-0.5,2.2-1.4,2.8c-1,0.7-2.3,1-4,1c-2,0-3.6-0.5-4.9-1.4
	c-1.3-0.9-2.1-2.2-2.5-3.8l-7.4,1.1c0.5,3.3,2.1,5.8,4.6,7.6C-234.2,104.8-231,105.7-227,105.7z M-207.1,104.8h7.3V88.2
	c0-2.6,0.4-4.6,1.1-6.1c0.8-1.4,1.7-2.4,2.9-3c1.2-0.6,2.4-0.8,3.6-0.8c1.7,0,3.1,0.4,4.1,1.1c1,0.7,1.8,1.7,2.2,2.8
	c0.5,1.1,0.8,2.3,1,3.6c0.2,1.2,0.2,2.4,0.2,3.4v15.6h7.3V86.7c0-0.8-0.1-1.8-0.2-3c-0.1-1.3-0.4-2.6-0.8-4c-0.4-1.4-1.1-2.7-2-4
	c-0.9-1.3-2.2-2.3-3.8-3.1c-1.6-0.8-3.5-1.2-5.9-1.2c-2.3,0-4.4,0.4-6.2,1.2c-1.8,0.8-3.2,1.9-4.4,3.3V61.6h-6.4V104.8z"/>
<circle class="st1" cx="53.5" cy="44.5" r="36.5"/>
<path class="st0" d="M3.4,20c2.2,0.2,4.4,0.7,6.5,2.1c0.5,0.4,1,0.7,1.5,1.2c0.4,0.5,0.9,1,1.3,1.5c0.4,0.5,0.7,0.9,1,1.4
	c5.5,0.4,10.9,1.1,16.3,2.4c3.8,0.8,7.5,2,11.2,3.4c3.2,1.3,6.5,2.9,9.5,5c-9.1-10-18.9-13.6-23.6-15.2C17,18.3,7.9,18.8,1.4,20
	C2.1,20,2.8,20,3.4,20z"/>
<path class="st0" d="M29.6,31.8c-3.7-0.9-7.4-1.5-11.1-2.1c-0.9-0.1-1.8-0.3-2.7-0.4c1.1,1.8,2.1,3.6,3,5.5c0.2,0.4,0.4,0.8,0.6,1.2
	c4.9,0.4,9.8,1,14.6,2.1l2.8,0.7l1.4,0.4l1.4,0.4l2.7,0.9c0.9,0.3,1.8,0.7,2.7,1.1c3.6,1.5,7.1,3.4,10.4,6c2.7,2.1,5.2,4.7,7.1,7.9
	c-1.1-2.7-2.5-5.5-4.1-8.2c-2.1-3-4.7-5.4-7.4-7.3c-3.2-2.2-6.7-3.9-10.3-5.1C37,33.7,33.3,32.6,29.6,31.8z"/>
<path class="st0" d="M54.3,49.9c-3.2-2.2-6.6-4-10.1-5.3l-2.6-1l-2.7-0.8l-1.3-0.4l-1.4-0.3l-2.7-0.7c-3.6-0.8-7.3-1.5-11-1.9
	c-0.6-0.1-1.2-0.2-1.8-0.2c0.4,1,0.9,1.8,1.4,2.6c1.3,1.9,3,3.3,4.8,4.2c0.9,0.5,1.9,0.8,2.9,1.1l3.2,0.9l12.6,3.7l6.3,1.9
	c2.2,0.8,4.2,2.1,6.1,3.8c3.6,3.2,6.3,7.5,8.6,12.1c-0.8-3.9-2.2-7.5-4-10.7C60.5,55,57.5,52.2,54.3,49.9z"/>
<g>
	<g>
		<path class="st0" d="M120.2,12.9c2.8,0,5.2,0.5,7.4,1.6c2.1,1,4,2.5,5.4,4.3c1.5,1.9,2.6,4,3.3,6.4c0.7,2.4,1.1,5,1.1,7.8
			c0,3.7-0.7,7.1-2,10.1c-1.3,3-3.3,5.5-5.8,7.3c-2.5,1.8-5.7,2.7-9.4,2.7h-13.7c-1,0-1.8-0.3-2.5-1c-0.7-0.7-1-1.5-1-2.5V16.4
			c0-1,0.3-1.8,1-2.5c0.7-0.7,1.5-1,2.5-1H120.2z M119.6,46.5c2.4,0,4.4-0.6,5.9-1.9c1.5-1.2,2.7-2.9,3.4-4.9c0.7-2,1.1-4.3,1.1-6.7
			c0-1.8-0.2-3.5-0.6-5.1c-0.4-1.6-1-3.1-1.9-4.3c-0.8-1.2-1.9-2.2-3.2-3c-1.3-0.7-2.9-1.1-4.7-1.1h-10.1l0.6-0.5v28.2l-0.3-0.6
			H119.6z"/>
		<path class="st0" d="M158.8,21.9l-12.4,29.2c-0.3,0.7-0.7,1.3-1.2,1.7c-0.6,0.4-1.2,0.6-1.8,0.6c-1,0-1.8-0.3-2.3-0.9
			c-0.5-0.6-0.7-1.3-0.7-2.1c0-0.3,0.1-0.7,0.2-1.1l14.3-34.4c0.3-0.8,0.8-1.4,1.4-1.8c0.6-0.4,1.3-0.6,2-0.5c0.7,0,1.3,0.2,1.9,0.6
			c0.6,0.4,1,1,1.3,1.7l14.1,33.7c0.2,0.5,0.3,1,0.3,1.4c0,1-0.3,1.9-1,2.5c-0.7,0.6-1.4,0.9-2.2,0.9c-0.7,0-1.3-0.2-1.9-0.6
			c-0.6-0.4-1-1-1.3-1.7l-12.4-28.8L158.8,21.9z M148.2,44.1l3.2-6.6h15.5l1.1,6.6H148.2z"/>
		<path class="st0" d="M184.3,12.9h19.2c1,0,1.8,0.3,2.5,0.9c0.7,0.6,1,1.4,1,2.4c0,1-0.3,1.7-1,2.3c-0.7,0.6-1.5,0.9-2.5,0.9h-16.1
			l0.5-1v11.2l-0.5-0.5H201c1,0,1.8,0.3,2.5,0.9c0.7,0.6,1,1.4,1,2.4c0,1-0.3,1.7-1,2.3c-0.7,0.6-1.5,0.9-2.5,0.9h-13.3l0.3-0.5V47
			l-0.5-0.5h16c1,0,1.8,0.3,2.5,1c0.7,0.7,1,1.4,1,2.3c0,1-0.3,1.7-1,2.4c-0.7,0.6-1.5,0.9-2.5,0.9h-19.2c-1,0-1.8-0.3-2.5-1
			c-0.7-0.7-1-1.5-1-2.5V16.4c0-1,0.3-1.8,1-2.5C182.5,13.2,183.3,12.9,184.3,12.9z"/>
		<path class="st0" d="M239.3,12.7c0.9,0,1.7,0.3,2.4,1c0.7,0.7,1.1,1.5,1.1,2.6c0,0.3,0,0.7-0.1,1.1c-0.1,0.4-0.3,0.7-0.5,1.1
			l-13,18.7l1-4v16.5c0,1-0.3,1.8-1,2.5c-0.7,0.7-1.4,1-2.3,1c-1,0-1.8-0.3-2.4-1c-0.7-0.7-1-1.5-1-2.5v-16l0.5,1.8l-12.4-16.5
			c-0.4-0.5-0.7-1-0.8-1.4c-0.2-0.5-0.2-0.9-0.2-1.3c0-1,0.4-1.9,1.2-2.5c0.8-0.7,1.6-1,2.5-1c1.1,0,2,0.5,2.8,1.6l11,15.2l-1.6-0.2
			l10.2-14.9C237.2,13.3,238.2,12.7,239.3,12.7z"/>
		<path class="st0" d="M262.7,21.9l-12.4,29.2c-0.3,0.7-0.7,1.3-1.2,1.7c-0.6,0.4-1.2,0.6-1.8,0.6c-1,0-1.8-0.3-2.3-0.9
			c-0.5-0.6-0.7-1.3-0.7-2.1c0-0.3,0.1-0.7,0.2-1.1l14.3-34.4c0.3-0.8,0.8-1.4,1.4-1.8c0.6-0.4,1.3-0.6,2-0.5c0.7,0,1.3,0.2,1.9,0.6
			c0.6,0.4,1,1,1.3,1.7l14.1,33.7c0.2,0.5,0.3,1,0.3,1.4c0,1-0.3,1.9-1,2.5c-0.7,0.6-1.4,0.9-2.2,0.9c-0.7,0-1.3-0.2-1.9-0.6
			s-1-1-1.3-1.7L261,22.2L262.7,21.9z M252,44.1l3.2-6.6h15.5l1.1,6.6H252z"/>
		<path class="st0" d="M315.1,12.9c0.9,0,1.7,0.3,2.2,0.9c0.6,0.6,0.9,1.4,0.9,2.3v33.5c0,1-0.3,1.8-1,2.5c-0.7,0.7-1.5,1-2.5,1
			c-0.5,0-1-0.1-1.5-0.3c-0.5-0.2-0.9-0.4-1.2-0.7l-22.6-28.7l1.5-0.9v27.4c0,0.9-0.3,1.7-0.9,2.3c-0.6,0.6-1.4,0.9-2.3,0.9
			c-0.9,0-1.7-0.3-2.2-0.9c-0.6-0.6-0.9-1.4-0.9-2.3V16.4c0-1,0.3-1.8,1-2.5c0.7-0.7,1.5-1,2.5-1c0.5,0,1.1,0.1,1.7,0.3
			c0.6,0.2,1,0.5,1.3,0.9l21.9,27.9l-1,0.7V16.1c0-0.9,0.3-1.7,0.9-2.3C313.4,13.2,314.2,12.9,315.1,12.9z"/>
		<path class="st0" d="M345.8,53.7c-2.9,0-5.6-0.5-8.2-1.6s-4.8-2.6-6.7-4.5c-1.9-1.9-3.4-4.1-4.5-6.6c-1.1-2.5-1.6-5.2-1.6-8
			s0.5-5.6,1.6-8c1.1-2.5,2.6-4.7,4.5-6.6c1.9-1.9,4.1-3.4,6.7-4.5c2.5-1.1,5.2-1.6,8.2-1.6c1.8,0,3.5,0.2,5.2,0.6
			c1.7,0.4,3.2,1,4.7,1.7c0.6,0.3,1,0.7,1.3,1.2s0.4,1,0.4,1.6c0,0.9-0.3,1.7-0.9,2.5c-0.6,0.7-1.4,1.1-2.4,1.1
			c-0.3,0-0.6,0-0.9-0.1c-0.3-0.1-0.6-0.2-0.9-0.3c-1-0.4-2-0.7-3-1c-1.1-0.2-2.2-0.3-3.4-0.3c-2.5,0-4.8,0.6-6.8,1.9
			c-2,1.2-3.7,2.9-4.9,5c-1.2,2.1-1.8,4.4-1.8,6.9c0,2.5,0.6,4.8,1.8,6.9c1.2,2.1,2.8,3.8,4.9,5c2,1.2,4.3,1.9,6.8,1.9
			c1.1,0,2.4-0.1,3.8-0.3c1.4-0.2,2.5-0.5,3.4-0.9l-0.5,1.7v-9.8l1,0.9h-6.4c-1,0-1.8-0.3-2.5-1c-0.7-0.7-1-1.5-1-2.5
			c0-1,0.3-1.8,1-2.5c0.7-0.7,1.5-1,2.5-1h9.4c1,0,1.8,0.3,2.5,1c0.7,0.7,1,1.5,1,2.5v12.2c0,0.8-0.2,1.4-0.5,1.9
			c-0.4,0.5-0.8,0.9-1.2,1.2c-1.8,1.1-3.7,1.9-5.8,2.6C350.3,53.4,348.1,53.7,345.8,53.7z"/>
	</g>
</g>
<text transform="matrix(1 0 0 1 99.4159 81)" class="st2 st3 st4">REPOSITORY SYSTEM</text>
</svg>
